<?xml version="1.0" encoding="UTF-8" standalone="no"?>
<!-- Created with Inkscape (http://www.inkscape.org/) -->

<svg
   width="130"
   height="130"
   viewBox="0 0 34.395829 34.395829"
   version="1.1"
   id="svg1"
   xml:space="preserve"
   inkscape:version="1.3.2 (091e20ef0f, 2023-11-25, custom)"
   sodipodi:docname="cmixta_logo_color_3.svg"
   xmlns:inkscape="http://www.inkscape.org/namespaces/inkscape"
   xmlns:sodipodi="http://sodipodi.sourceforge.net/DTD/sodipodi-0.dtd"
   xmlns="http://www.w3.org/2000/svg"
   xmlns:svg="http://www.w3.org/2000/svg"><sodipodi:namedview
     id="namedview1"
     pagecolor="#ffffff"
     bordercolor="#000000"
     borderopacity="0.25"
     inkscape:showpageshadow="2"
     inkscape:pageopacity="0.0"
     inkscape:pagecheckerboard="0"
     inkscape:deskcolor="#d1d1d1"
     inkscape:document-units="mm"
     inkscape:zoom="0.84244133"
     inkscape:cx="316.93602"
     inkscape:cy="90.213997"
     inkscape:window-width="1366"
     inkscape:window-height="768"
     inkscape:window-x="0"
     inkscape:window-y="0"
     inkscape:window-maximized="1"
     inkscape:current-layer="layer1" /><defs
     id="defs1" /><g
     inkscape:label="Layer 1"
     inkscape:groupmode="layer"
     id="layer1"><g
       id="g81"
       transform="translate(-153.52834,-110.49998)"><path
         id="path74"
         style="fill:#012b60;fill-opacity:1;stroke:none;stroke-width:0.529167"
         d="m 178.27387,110.83923 a 1.6180055,1.6180055 0 0 0 -1.61799,1.61799 1.6180055,1.6180055 0 0 0 0.0837,0.50488 l -5.41517,5.38985 a 1.6180055,1.6180055 0 0 0 -0.51573,-0.0847 1.6180055,1.6180055 0 0 0 -0.51419,0.0873 l -7.03677,-6.98923 -7.21559,7.21558 a 1.6180055,1.6180055 0 0 0 -0.52244,-0.0873 1.6180055,1.6180055 0 0 0 -1.61799,1.61799 1.6180055,1.6180055 0 0 0 1.61799,1.61799 1.6180055,1.6180055 0 0 0 0.32866,-0.0377 l 4.93458,5.02088 1.1312,-1.11104 -4.87051,-4.95732 a 1.6180055,1.6180055 0 0 0 0.0941,-0.53279 1.6180055,1.6180055 0 0 0 -0.0377,-0.34416 l 6.1619,-6.1619 5.97069,5.93349 a 1.6180055,1.6180055 0 0 0 -0.0419,0.34623 1.6180055,1.6180055 0 0 0 1.61799,1.61799 1.6180055,1.6180055 0 0 0 1.61798,-1.61799 1.6180055,1.6180055 0 0 0 -0.0393,-0.3514 l 5.52731,-5.50302 a 1.6180055,1.6180055 0 0 0 0.35915,0.0444 1.6180055,1.6180055 0 0 0 0.35347,-0.0434 l 6.14794,6.14794 -9.84436,9.84643 -0.001,-0.001 -1.87327,1.86913 5.24619,5.25395 0.37414,-0.37362 0.001,0.001 0.77722,-0.77773 0.72037,-0.71882 -4.12327,-4.12998 10.96936,-10.96936 -7.21455,-7.21454 a 1.6180055,1.6180055 0 0 0 0.0848,-0.50798 1.6180055,1.6180055 0 0 0 -1.61799,-1.61799 z" /><path
         id="path74-0"
         style="fill:#960001;fill-opacity:1;stroke:none;stroke-width:0.529167"
         d="m 163.17865,144.55657 a 1.6180055,1.6180055 0 0 0 1.61799,-1.61799 1.6180055,1.6180055 0 0 0 -0.0837,-0.50488 l 5.41517,-5.38985 a 1.6180055,1.6180055 0 0 0 0.51573,0.0847 1.6180055,1.6180055 0 0 0 0.51419,-0.0873 l 7.03677,6.98923 7.21559,-7.21558 a 1.6180055,1.6180055 0 0 0 0.52244,0.0873 1.6180055,1.6180055 0 0 0 1.61799,-1.61799 1.6180055,1.6180055 0 0 0 -1.61799,-1.61799 1.6180055,1.6180055 0 0 0 -0.32866,0.0377 l -4.93458,-5.02088 -1.1312,1.11104 4.87051,4.95732 a 1.6180055,1.6180055 0 0 0 -0.0941,0.53279 1.6180055,1.6180055 0 0 0 0.0377,0.34416 l -6.1619,6.1619 -5.97069,-5.93349 a 1.6180055,1.6180055 0 0 0 0.0419,-0.34623 1.6180055,1.6180055 0 0 0 -1.61799,-1.61799 1.6180055,1.6180055 0 0 0 -1.61798,1.61799 1.6180055,1.6180055 0 0 0 0.0393,0.3514 l -5.52731,5.50302 a 1.6180055,1.6180055 0 0 0 -0.35915,-0.0444 1.6180055,1.6180055 0 0 0 -0.35347,0.0434 l -6.14794,-6.14794 9.84436,-9.84643 0.001,0.001 1.87327,-1.86913 -5.24619,-5.25395 -0.37414,0.37362 -10e-4,-0.001 -0.77722,0.77773 -0.72037,0.71882 4.12327,4.12998 -10.96936,10.96936 7.21455,7.21454 a 1.6180055,1.6180055 0 0 0 -0.0848,0.50798 1.6180055,1.6180055 0 0 0 1.61799,1.61799 z" /><g
         id="path76"><path
           style="color:#000000;fill:#ffff00;-inkscape-stroke:none"
           d="m 179.23893,136.21444 -5.24555,-5.25451"
           id="path77" /></g><g
         id="path79"
         style="fill:#e6e6e6"><path
           style="color:#000000;fill:#e6e6e6;-inkscape-stroke:none"
           d="m 162.05729,136.21444 17.18164,-17.21809"
           id="path80" /><path
           style="color:#000000;fill:#878787;fill-opacity:1;-inkscape-stroke:none"
           d="m 178.30273,118.0625 -17.18164,17.2168 1.87305,1.86914 17.18164,-17.2168 z"
           id="path81" /></g></g></g></svg>
